<svg width="40" height="58" viewBox="0 0 40 58" fill="none" xmlns="http://www.w3.org/2000/svg">
<path fill-rule="evenodd" clip-rule="evenodd" d="M11.5003 0.879883C12.6739 0.879883 13.6253 1.83128 13.6253 3.00488V12.3548H26.3753V3.00488C26.3753 1.83128 27.3267 0.879883 28.5003 0.879883C29.6739 0.879883 30.6253 1.83128 30.6253 3.00488V12.3548H37.7349C38.894 12.3548 39.8337 13.2945 39.8337 14.4536V20.8548C39.8337 30.7658 32.5641 38.9788 23.0662 40.4527C23.2484 40.9789 23.4169 41.5413 23.5557 42.1282C23.9827 43.9327 24.1752 46.1615 23.4227 48.3116C22.3886 51.2662 22.1253 54.5245 22.1253 55.7048C22.1253 56.8784 21.1739 57.8298 20.0003 57.8298C18.8267 57.8298 17.8753 56.8784 17.8753 55.7048C17.8753 54.1867 18.1788 50.4291 19.4113 46.9076C19.7921 45.8196 19.7485 44.4955 19.4199 43.1068C19.2049 42.198 18.8871 41.3437 18.5747 40.6377C8.28647 39.907 0.166992 31.3291 0.166992 20.8548V14.4536C0.166992 13.2945 1.10664 12.3548 2.26576 12.3548H9.37533V3.00488C9.37533 1.83128 10.3267 0.879883 11.5003 0.879883ZM4.41699 20.8548V16.6048H35.5837V20.8548C35.5837 29.4613 28.6068 36.4382 20.0003 36.4382C11.3939 36.4382 4.41699 29.4613 4.41699 20.8548Z" fill="#F6F6F6"/>
</svg>
