<svg width="68" height="68" viewBox="0 0 68 68" fill="none" xmlns="http://www.w3.org/2000/svg">
<path d="M4.57794 33.264C3.53067 32.1077 1.83272 32.1077 0.785451 33.264C-0.261817 34.4204 -0.261817 36.2953 0.785451 37.4517L13.3 51.2702C14.3473 52.4266 16.0453 52.4266 17.0925 51.2702C18.1398 50.1138 18.1398 48.2389 17.0925 47.0825L4.57794 33.264Z" fill="#F6F6F6"/>
<path fill-rule="evenodd" clip-rule="evenodd" d="M53.7425 12.7761C54.7656 11.6465 54.7922 9.82372 53.8032 8.65762L53.7969 8.65021L53.7837 8.63474L53.7385 8.58218C53.7003 8.53778 53.6458 8.47499 53.5764 8.39593C53.4378 8.23791 53.239 8.01434 52.9902 7.7424C52.4939 7.1999 51.7922 6.45767 50.9668 5.65556C49.3785 4.1119 47.1014 2.11604 44.86 1.05247C43.1777 0.254229 41.2125 0.0170016 39.4144 0.000885679C37.5738 -0.0156108 35.6744 0.200354 33.9949 0.48016C32.3067 0.761407 30.786 1.11656 29.6894 1.40035C29.1394 1.54267 28.6919 1.66813 28.3785 1.75909C28.2217 1.8046 28.0982 1.84154 28.0118 1.86775L27.9106 1.89875L27.8818 1.90771L27.873 1.91047L27.868 1.91205C27.4299 2.05031 27.0309 2.30957 26.7087 2.66535L7.04273 24.3805C5.99547 25.5369 5.99548 27.4118 7.04274 28.5682L21.3451 44.3607C22.3924 45.5171 24.0903 45.5171 25.1376 44.3608L29.4988 39.5453L52.6317 65.0885C56.1474 68.9705 61.8475 68.9705 65.3632 65.0885C68.8789 61.2065 68.8789 54.9125 65.3632 51.0305L42.2303 25.4873L53.7425 12.7761ZM12.7315 26.4743L29.992 7.41519C30.2396 7.34528 30.5506 7.26016 30.9132 7.16633C31.9125 6.90773 33.2868 6.58737 34.7951 6.33609C36.3119 6.08338 37.9102 5.90981 39.3709 5.92291C40.8741 5.93638 42.0139 6.14786 42.7424 6.49356C44.1579 7.1652 45.9034 8.62397 47.4233 10.1011C47.636 10.3078 47.8397 10.5104 48.0326 10.7056L23.2414 38.0793L12.7315 26.4743ZM33.2913 35.3577L38.4378 29.675L61.5707 55.2181C62.9919 56.7874 62.9919 59.3316 61.5707 60.9009C60.1496 62.4701 57.8454 62.4701 56.4242 60.9009L33.2913 35.3577Z" fill="#F6F6F6"/>
</svg>
