<svg width="53" height="58" viewBox="0 0 53 58" fill="none" xmlns="http://www.w3.org/2000/svg">
<path fill-rule="evenodd" clip-rule="evenodd" d="M7.99967 4.91669C6.04367 4.91669 4.45801 6.50235 4.45801 8.45835V14.125C4.45801 16.081 6.04367 17.6667 7.99967 17.6667H39.1663C41.1223 17.6667 42.708 16.081 42.708 14.125V8.45835C42.708 6.50235 41.1223 4.91669 39.1663 4.91669H7.99967ZM46.958 9.45998V8.45835C46.958 4.15514 43.4696 0.666687 39.1663 0.666687H7.99967C3.69646 0.666687 0.208008 4.15513 0.208008 8.45835V14.125C0.208008 18.4282 3.69646 21.9167 7.99967 21.9167H39.1663C43.4696 21.9167 46.958 18.4282 46.958 14.125C47.8182 14.7712 48.3747 15.7996 48.3747 16.9584V23.3334C48.3747 25.2894 46.789 26.875 44.833 26.875H30.6663C26.3631 26.875 22.8747 30.3635 22.8747 34.6667V35.6683C19.6043 36.5933 17.208 39.6002 17.208 43.1667V49.5417C17.208 53.8449 20.6965 57.3334 24.9997 57.3334C29.3029 57.3334 32.7913 53.8449 32.7913 49.5417V43.1667C32.7913 39.6002 30.3951 36.5933 27.1247 35.6683V34.6667C27.1247 32.7107 28.7103 31.125 30.6663 31.125H44.833C49.1362 31.125 52.6247 27.6366 52.6247 23.3334V16.9584C52.6247 13.3918 50.2284 10.385 46.958 9.45998ZM24.9997 39.625C23.0437 39.625 21.458 41.2107 21.458 43.1667V49.5417C21.458 51.4977 23.0437 53.0834 24.9997 53.0834C26.9557 53.0834 28.5413 51.4977 28.5413 49.5417V43.1667C28.5413 41.2107 26.9557 39.625 24.9997 39.625Z" fill="#F6F6F6"/>
</svg>
