<svg width="35" height="35" viewBox="0 0 35 35" fill="none" xmlns="http://www.w3.org/2000/svg">
<path fill-rule="evenodd" clip-rule="evenodd" d="M29.1243 1.45825C31.5407 1.45825 33.4993 3.41701 33.4993 5.83325V29.1666C33.4993 31.5829 31.5407 33.5416 29.1243 33.5416H5.79102C3.37478 33.5416 1.41602 31.5829 1.41602 29.1666V5.83325C1.41602 3.41701 3.37478 1.45825 5.79102 1.45825H29.1243ZM29.1243 4.37492C29.9298 4.37492 30.5827 5.02784 30.5827 5.83325V29.1666C30.5827 29.972 29.9298 30.6249 29.1243 30.6249H21.8327V20.4164H24.8605C25.4881 20.4164 26.0454 20.0148 26.244 19.4192L26.89 17.4811C27.1261 16.7728 26.599 16.0414 25.8524 16.0414H21.8327V13.1248C21.8327 12.3956 22.5618 11.6665 23.291 11.6665H26.2077C27.0131 11.6665 27.666 11.0135 27.666 10.2081V9.20773C27.666 8.73666 27.3652 8.31431 26.9096 8.1941C24.998 7.68964 23.291 7.68964 23.291 7.68964C19.6452 7.68964 17.4577 10.2081 17.4577 12.3956V16.0414H14.541C13.7356 16.0414 13.0827 16.6943 13.0827 17.4998V18.9581C13.0827 19.7635 13.7356 20.4164 14.541 20.4164H17.4577V30.6249H5.79102C4.98561 30.6249 4.33268 29.972 4.33268 29.1666V5.83325C4.33268 5.02784 4.98561 4.37492 5.79102 4.37492H29.1243Z" fill="#F6F6F6"/>
</svg>
