<svg width="35" height="35" viewBox="0 0 35 35" fill="none" xmlns="http://www.w3.org/2000/svg">
<path fill-rule="evenodd" clip-rule="evenodd" d="M2.28768 6.23584C1.33398 8.10757 1.33398 10.5578 1.33398 15.4583V19.5416C1.33398 24.442 1.33398 26.8923 2.28768 28.7639C3.12657 30.4104 4.46514 31.749 6.11157 32.5878C7.9833 33.5416 10.4335 33.5416 15.334 33.5416H19.4173C24.3178 33.5416 26.768 33.5416 28.6397 32.5878C30.2861 31.749 31.6247 30.4104 32.4636 28.7639C33.4173 26.8923 33.4173 24.442 33.4173 19.5416V15.4583C33.4173 10.5578 33.4173 8.10757 32.4636 6.23584C31.6247 4.58941 30.2861 3.25084 28.6397 2.41194C26.768 1.45825 24.3178 1.45825 19.4173 1.45825H15.334C10.4335 1.45825 7.9833 1.45825 6.11157 2.41194C4.46514 3.25084 3.12657 4.58941 2.28768 6.23584ZM19.4173 4.37492H15.334C12.8356 4.37492 11.1373 4.37719 9.82452 4.48444C8.54579 4.58891 7.89188 4.77828 7.43571 5.01071C6.33809 5.56998 5.44571 6.46236 4.88644 7.55998C4.65401 8.01614 4.46465 8.67006 4.36017 9.94878C4.25293 11.2615 4.25065 12.9599 4.25065 15.4583V19.5416C4.25065 22.04 4.25293 23.7382 4.36017 25.051C4.46465 26.3298 4.65401 26.9838 4.88644 27.4399C5.44571 28.5375 6.33809 29.4298 7.43571 29.9891C7.89188 30.2215 8.54579 30.411 9.82452 30.5154C11.1373 30.6226 12.8356 30.6249 15.334 30.6249H19.4173C21.9157 30.6249 23.614 30.6226 24.9268 30.5154C26.2056 30.411 26.8595 30.2215 27.3156 29.9891C28.4132 29.4298 29.3055 28.5375 29.8648 27.4399C30.0973 26.9838 30.2867 26.3298 30.3911 25.051C30.4983 23.7382 30.5006 22.04 30.5006 19.5416V15.4583C30.5006 12.9599 30.4983 11.2615 30.3911 9.94878C30.2867 8.67006 30.0973 8.01614 29.8648 7.55998C29.3055 6.46236 28.4132 5.56998 27.3156 5.01071C26.8595 4.77828 26.2056 4.58891 24.9268 4.48444C23.614 4.37719 21.9157 4.37492 19.4173 4.37492Z" fill="#F6F6F6"/>
<path fill-rule="evenodd" clip-rule="evenodd" d="M17.3763 26.0209C22.0822 26.0209 25.8971 22.206 25.8971 17.5001C25.8971 12.7942 22.0822 8.97925 17.3763 8.97925C12.6704 8.97925 8.85547 12.7942 8.85547 17.5001C8.85547 22.206 12.6704 26.0209 17.3763 26.0209ZM17.3763 23.1806C20.5135 23.1806 23.0569 20.6373 23.0569 17.5001C23.0569 14.3628 20.5135 11.8195 17.3763 11.8195C14.239 11.8195 11.6957 14.3628 11.6957 17.5001C11.6957 20.6373 14.239 23.1806 17.3763 23.1806Z" fill="#F6F6F6"/>
<path d="M25.8967 7.55908C25.1124 7.55908 24.4766 8.19491 24.4766 8.97922C24.4766 9.76354 25.1124 10.3994 25.8967 10.3994C26.681 10.3994 27.3168 9.76354 27.3168 8.97922C27.3168 8.19491 26.681 7.55908 25.8967 7.55908Z" fill="#F6F6F6"/>
</svg>
