<?xml version="1.0" encoding="UTF-8" standalone="no"?>
<!-- Created with Inkscape (http://www.inkscape.org/) -->

<svg
   width="29.302088mm"
   height="31.490587mm"
   viewBox="0 0 29.302088 31.490587"
   version="1.1"
   id="svg1"
   xml:space="preserve"
   xmlns="http://www.w3.org/2000/svg"
   xmlns:svg="http://www.w3.org/2000/svg"><defs
     id="defs1" /><g
     id="layer1"
     transform="translate(-28.574999,-181.30781)"><path
       id="text1-1"
       style="color:#000000;font-style:normal;font-variant:normal;font-weight:500;font-stretch:normal;font-size:medium;line-height:normal;font-family:'ITC Berkeley Oldstyle';-inkscape-font-specification:'ITC Berkeley Oldstyle Medium';font-variant-ligatures:normal;font-variant-position:normal;font-variant-caps:normal;font-variant-numeric:normal;font-variant-alternates:normal;font-variant-east-asian:normal;font-feature-settings:normal;font-variation-settings:normal;text-indent:0;text-align:start;text-decoration-line:none;text-decoration-style:solid;text-decoration-color:#000000;letter-spacing:normal;word-spacing:normal;text-transform:none;writing-mode:lr-tb;direction:ltr;text-orientation:mixed;dominant-baseline:auto;baseline-shift:baseline;text-anchor:start;white-space:pre;shape-padding:0;shape-margin:0;inline-size:0;clip-rule:nonzero;display:inline;overflow:visible;visibility:visible;isolation:auto;mix-blend-mode:normal;color-interpolation:sRGB;color-interpolation-filters:linearRGB;solid-color:#000000;solid-opacity:1;vector-effect:none;fill:#496580;fill-opacity:1;fill-rule:nonzero;stroke:none;stroke-width:5.7359;stroke-linecap:butt;stroke-linejoin:miter;stroke-miterlimit:4;stroke-dasharray:none;stroke-dashoffset:0;stroke-opacity:1;-inkscape-stroke:none;color-rendering:auto;image-rendering:auto;shape-rendering:auto;text-rendering:auto;enable-background:accumulate;stop-color:#000000"
       d="m 44.011267,181.3078 c -8.879465,0 -15.436267,6.7975 -15.436267,16.71629 0,8.94771 5.668965,14.77429 13.79709,14.77429 9.016072,0 15.504997,-6.79779 15.504997,-16.8553 0,-8.73962 -5.737695,-14.63528 -13.86582,-14.63528 z m -1.964738,2.89129 c 0.153254,0.006 0.299405,0.0242 0.450618,0.0346 v 6.79701 c -1.207979,0.22769 -2.146218,1.89173 -2.146122,3.32537 0.0019,0.0509 0.005,0.10174 0.0093,0.15245 h 4.837431 c 0.0025,-0.0508 0.004,-0.10161 0.0041,-0.15245 9.2e-5,-1.36897 -0.855495,-2.94748 -1.984375,-3.28558 v -6.77788 c 0.721787,0.0878 1.392565,0.22796 1.94355,0.40876 4.39149,1.44095 8.161776,5.37107 8.161776,13.02607 0,4.3844 -1.221672,8.22516 -3.386357,10.51202 -1.345145,1.42108 -4.192827,1.97718 -6.743257,1.76165 v -6.84402 c 1.192204,-0.23764 2.113662,-1.795 2.113566,-3.13883 -1.73e-4,-0.0481 -0.0016,-0.0962 -0.0041,-0.14418 h -1.476913 c 0.0065,-0.0224 0.01034,-0.0457 0.01034,-0.0703 v -1.77715 c 0,-0.13969 -0.112494,-0.25218 -0.252181,-0.25218 -0.139687,0 -0.252181,0.11249 -0.252181,0.25218 v 1.77715 c 0,0.0245 0.0039,0.0479 0.01033,0.0703 h -1.09244 c 0.0045,-0.0189 0.0072,-0.0386 0.0072,-0.0589 v -1.77715 c 0,-0.13969 -0.112494,-0.25218 -0.252181,-0.25218 -0.139687,0 -0.252181,0.11249 -0.252181,0.25218 v 1.77715 c 0,0.0203 0.0027,0.04 0.0072,0.0589 h -1.294495 c -0.0043,0.048 -0.0074,0.096 -0.0093,0.14418 -9.5e-5,1.33471 0.908795,2.88055 2.089278,3.13418 v 6.76909 c -1.128774,-0.15927 -2.173358,-0.45997 -2.941939,-0.93482 -2.890897,-1.7861 -5.058567,-5.23685 -5.566068,-10.57817 -0.129435,-1.36227 -0.127731,-3.58641 -0.03101,-4.95164 0.260248,-3.67347 1.156669,-6.49926 2.963126,-8.05894 1.096228,-0.94646 3.146514,-1.26943 5.07721,-1.19889 z" /></g></svg>
