<?xml version="1.0" encoding="UTF-8" standalone="no"?>
<!-- Created with Inkscape (http://www.inkscape.org/) -->

<svg
   width="157.84929mm"
   height="50.079632mm"
   viewBox="0 0 157.84929 50.079632"
   version="1.1"
   id="svg1"
   xml:space="preserve"
   xmlns="http://www.w3.org/2000/svg"
   xmlns:svg="http://www.w3.org/2000/svg"><defs
     id="defs1" /><g
     id="layer1"
     transform="translate(-24.547857,-98.207959)"><path
       id="text1"
       style="color:#000000;font-style:normal;font-variant:normal;font-weight:500;font-stretch:normal;font-size:medium;line-height:normal;font-family:'ITC Berkeley Oldstyle';-inkscape-font-specification:'ITC Berkeley Oldstyle Medium';font-variant-ligatures:normal;font-variant-position:normal;font-variant-caps:normal;font-variant-numeric:normal;font-variant-alternates:normal;font-variant-east-asian:normal;font-feature-settings:normal;font-variation-settings:normal;text-indent:0;text-align:start;text-decoration-line:none;text-decoration-style:solid;text-decoration-color:#000000;letter-spacing:normal;word-spacing:normal;text-transform:none;writing-mode:lr-tb;direction:ltr;text-orientation:mixed;dominant-baseline:auto;baseline-shift:baseline;text-anchor:start;white-space:pre;shape-padding:0;shape-margin:0;inline-size:0;clip-rule:nonzero;display:inline;overflow:visible;visibility:visible;isolation:auto;mix-blend-mode:normal;color-interpolation:sRGB;color-interpolation-filters:linearRGB;solid-color:#000000;solid-opacity:1;vector-effect:none;fill:#496580;fill-opacity:1;fill-rule:nonzero;stroke:none;stroke-width:5.7359;stroke-linecap:butt;stroke-linejoin:miter;stroke-miterlimit:4;stroke-dasharray:none;stroke-dashoffset:0;stroke-opacity:1;-inkscape-stroke:none;color-rendering:auto;image-rendering:auto;shape-rendering:auto;text-rendering:auto;enable-background:accumulate;stop-color:#000000;stop-opacity:1"
       d="m 107.33143,98.207959 c -3.55178,0.554897 -6.96679,0.832392 -10.245366,0.901754 v 1.872757 l 2.868558,-0.1385 h 0.136938 c 1.9808,0 2.1854,1.38714 2.1854,8.11527 v 33.29358 c 0,0.83235 0.0687,1.45698 0.0687,1.94251 0,0.90171 -0.20526,1.17874 -1.29811,1.17874 h -2.096514 a 0.36230908,0.36230908 0 0 0 -0.362252,0.36277 v 1.57975 H 112.7957 v -1.94252 h -2.11718 c -2.93705,0 -3.34709,-0.27746 -3.34709,-8.04602 z M 39.984123,116.79701 c -8.879465,0 -15.436267,6.7975 -15.436267,16.71629 0,8.94771 5.668965,14.77429 13.79709,14.77429 9.016072,0 15.504997,-6.79779 15.504997,-16.8553 0,-8.73962 -5.737695,-14.63528 -13.86582,-14.63528 z m 50.271867,0.139 c -3.283384,0.4668 -6.630282,0.74109 -9.979236,0.82321 -0.222719,0.005 -0.403076,0.18959 -0.403076,0.41238 v 0.91829 a 0.52504881,0.52504881 0 0 0 0.550354,0.52451 l 2.318204,-0.11213 h 0.136943 c 1.980803,0 2.117183,1.38713 2.117183,8.11526 v 14.63529 c 0,0.83235 0.06821,1.45698 0.06821,1.94251 0,0.90171 -0.204738,1.17874 -1.297595,1.17874 h -2.216919 a 0.24224117,0.24224117 0 0 0 -0.241846,0.24236 v 1.04749 a 0.65227973,0.65227973 0 0 0 0.652157,0.65267 h 13.192476 a 0.36230908,0.36230908 0 0 0 0.362252,-0.36225 v -1.04903 a 0.53074808,0.53074808 0 0 0 -0.530717,-0.53124 h -1.655196 c -2.86875,0 -3.21014,-0.27718 -3.21014,-7.90701 v -0.13901 -12.9992 c 0,-0.17575 2.47e-4,-0.46039 10e-4,-0.63614 0.008,-1.77683 0.07199,-6.7567 0.135909,-6.7567 z m 34.35656,0 c -3.55179,0.48554 -6.9668,0.76264 -10.24537,0.832 v 1.87275 l 2.86856,-0.13849 h 0.13642 c 1.9808,0 2.18592,1.38713 2.18592,8.11526 v 8.67028 c 0,7.28302 0.75112,11.93053 8.33282,11.93053 3.8933,0 6.89862,-1.94253 10.92853,-5.34127 1.36607,3.05193 3.55218,4.5087 7.10396,4.85551 l 2.25361,-3.60701 c -3.41518,-0.48554 -4.43952,-2.42743 -4.43952,-6.65851 v -20.53105 c -3.55179,0.48554 -6.9668,0.76264 -10.24537,0.832 v 1.87275 l 2.86856,-0.13849 h 0.13642 c 1.9808,0 2.18592,1.38713 2.18592,8.11526 v 13.17904 c -2.93705,2.5664 -6.07923,3.81476 -8.40156,3.81476 -4.23482,0 -5.6689,-2.63583 -5.6689,-8.32352 z m -57.693637,0.0925 c -3.045904,0.41591 -6.147966,0.66075 -9.306409,0.7338 -0.154158,0.004 -0.279053,0.13105 -0.279053,0.28525 v 0.29146 0.96635 a 0.31963018,0.31963018 0 0 0 0.334864,0.31936 l 2.533695,-0.12247 h 0.136943 c 1.980804,0 2.117183,1.31777 2.117183,8.11526 v 14.63529 c 0,0.83235 0.06821,1.45698 0.06821,1.94251 0,0.90171 -0.204738,1.17874 -1.297595,1.17874 h -2.216919 a 0.24224102,0.24224102 0 0 0 -0.241846,0.24236 v 1.17151 a 0.52869005,0.52869005 0 0 0 0.52865,0.52865 h 13.400732 a 0.482377,0.482377 0 0 0 0.482658,-0.48266 v -1.02836 a 0.43117117,0.43117117 0 0 0 -0.431498,-0.4315 h -1.959053 c -2.86875,0 -3.210657,-0.27746 -3.210657,-8.04602 v -12.69276 c 2.390625,-2.08087 3.176568,-1.67277 5.498889,-1.67277 2.937054,0 3.005355,2.2195 3.893302,2.2195 0.478125,0 0.546555,-0.41587 0.683163,-1.10949 l 0.750858,-3.57859 c 0.07564,-0.36044 -0.06943,-0.86974 -0.353983,-1.10329 -0.817116,-0.67067 -1.697463,-1.00614 -2.719214,-1.00614 -3.073661,0 -3.996318,0.70138 -7.753015,4.03076 v -4.81315 c 0,-0.36804 -0.295257,-0.62339 -0.659908,-0.5736 z M 150.2947,117.768 v 1.87275 l 1.57097,0.0698 c 1.57098,0 2.59535,1.31785 4.02972,3.12126 l 7.51376,9.50278 -2.93729,3.05149 c -6.62545,7.00558 -6.69383,9.98854 -9.28936,9.98854 h -1.43402 v 1.942 h 11.81634 v -1.94252 h -3.14193 -0.61495 c -0.68303,0 -0.95602,-0.0691 -0.95602,-0.48524 0,-1.59533 1.91239,-4.78599 5.53248,-8.67027 l 1.98076,-2.15026 7.10344,9.78028 c 0.34151,0.41617 0.47853,0.83217 0.47853,1.04025 0,0.41617 -0.34196,0.48524 -1.2299,0.48524 h -2.39055 v 1.94252 h 14.07046 v -1.94252 l -1.70739,0.0698 c -1.63929,0 -2.39057,-1.17918 -3.55173,-2.77451 l -8.74313,-11.99979 5.46427,-5.6875 c 3.14197,-3.26002 3.75671,-5.34128 6.21564,-5.34128 h 1.16117 v -1.87275 h -11.33833 v 1.87275 h 2.86908 0.54622 c 0.81965,0 1.02474,0.0698 1.02474,0.69401 0,1.24851 -0.88821,2.42757 -2.5275,4.09226 l -4.57646,4.64726 -5.94227,-7.97677 c -0.34151,-0.48554 -0.47801,-0.76303 -0.47801,-0.90176 0,-0.34681 0.34162,-0.555 1.09296,-0.555 h 2.80034 v -1.87275 z m -112.275315,1.9203 c 0.153254,0.006 0.299405,0.0242 0.450618,0.0346 v 6.79701 c -1.207979,0.22769 -2.146218,1.89173 -2.146122,3.32537 0.0019,0.0509 0.005,0.10174 0.0093,0.15245 h 4.837431 c 0.0025,-0.0508 0.004,-0.10161 0.0041,-0.15245 9.2e-5,-1.36897 -0.855495,-2.94748 -1.984375,-3.28558 v -6.77788 c 0.721787,0.0878 1.392565,0.22796 1.94355,0.40876 4.39149,1.44095 8.161776,5.37107 8.161776,13.02607 0,4.3844 -1.221672,8.22516 -3.386357,10.51202 -1.345145,1.42108 -4.192827,1.97718 -6.743257,1.76165 v -6.84402 c 1.192204,-0.23764 2.113662,-1.795 2.113566,-3.13883 -1.73e-4,-0.0481 -0.0016,-0.0962 -0.0041,-0.14418 h -1.476913 c 0.0065,-0.0224 0.01034,-0.0457 0.01034,-0.0703 v -1.77715 c 0,-0.13969 -0.112494,-0.25218 -0.252181,-0.25218 -0.139687,0 -0.252181,0.11249 -0.252181,0.25218 v 1.77715 c 0,0.0245 0.0039,0.0479 0.01033,0.0703 h -1.09244 c 0.0045,-0.0189 0.0072,-0.0386 0.0072,-0.0589 v -1.77715 c 0,-0.13969 -0.112494,-0.25218 -0.252181,-0.25218 -0.139687,0 -0.252181,0.11249 -0.252181,0.25218 v 1.77715 c 0,0.0203 0.0027,0.04 0.0072,0.0589 h -1.294495 c -0.0043,0.048 -0.0074,0.096 -0.0093,0.14418 -9.5e-5,1.33471 0.908795,2.88055 2.089278,3.13418 v 6.76909 c -1.128774,-0.15927 -2.173358,-0.45997 -2.941939,-0.93482 -2.890897,-1.7861 -5.058567,-5.23685 -5.566068,-10.57817 -0.129435,-1.36227 -0.127731,-3.58641 -0.03101,-4.95164 0.260248,-3.67347 1.156669,-6.49926 2.963126,-8.05894 1.096228,-0.94646 3.146514,-1.26943 5.07721,-1.19889 z" /></g></svg>
