<svg width="215" height="181" viewBox="0 0 215 181" fill="none" xmlns="http://www.w3.org/2000/svg">
<path fill-rule="evenodd" clip-rule="evenodd" d="M193.776 1.30205C194.55 1.20352 195.241 1.03651 195.053 0.47705C194.941 0.151382 194.526 -0.0874335 193.879 -0.0106056C193.076 0.0795738 192.476 0.370162 192.54 0.849471C192.587 1.19015 193.205 1.28033 193.776 1.30205ZM183.043 -39.2201C183.69 -39.2752 184.108 -39.4756 183.996 -39.8564C183.943 -40.0451 183.711 -40.2889 183.437 -40.3658C182.814 -40.5495 182.399 -40.349 182.34 -39.98C182.29 -39.6643 182.419 -39.3604 183.043 -39.2201ZM199.584 120.096C199.116 119.819 198.657 119.345 198.016 119.241C197.61 119.178 197.368 119.772 197.639 120.088C197.977 120.485 198.536 120.814 199.425 120.721C199.531 120.707 199.522 120.37 199.584 120.096ZM104.458 148.557C104.794 148.45 105.409 148.3 105.388 148.258C105.041 147.63 104.479 147.066 103.264 146.869C103.09 146.844 102.578 147.083 102.573 147.203C102.54 147.933 103.079 148.45 104.458 148.557ZM104.385 145.62C104.25 145.069 103.782 144.937 103.199 144.928C102.508 144.915 102.167 145.154 102.296 145.521C102.414 145.852 102.887 146.027 103.482 146.044C104.226 146.061 104.394 145.787 104.385 145.62ZM180.251 142.421C179.954 142.221 179.686 141.862 179.245 141.772C178.397 141.593 177.718 141.82 177.747 142.383C177.765 142.73 178.168 142.986 178.868 142.978C179.462 142.969 179.954 142.846 180.251 142.421ZM7.4148 -26.9101C8.06795 -27.7535 8.45043 -28.2495 8.83585 -28.7455C8.48574 -28.7706 7.99441 -28.8908 7.81788 -28.8057C7.02643 -28.4115 6.90581 -27.8855 7.4148 -26.9101ZM157.311 156.62C157.27 156.064 156.846 155.864 156.281 155.762C155.505 155.62 155.21 155.941 155.178 156.27C155.14 156.689 155.187 157.198 156.311 157.108C156.896 157.061 157.288 156.801 157.311 156.62ZM202.082 -42.6654C202.664 -42.7807 203.235 -42.9176 202.844 -43.3618C202.564 -43.6708 202.082 -43.8879 201.458 -43.7944C200.817 -43.6958 200.472 -43.3418 200.637 -43.0111C200.817 -42.6704 201.482 -42.627 202.082 -42.6654ZM181.007 -193.409C181.384 -193.333 181.387 -193.76 181.49 -194.026C181.657 -194.475 181.354 -194.914 180.686 -195.116C180.41 -195.201 179.463 -194.952 179.365 -194.765C179.083 -194.218 179.442 -193.73 181.007 -193.409ZM191.266 -99.5407C190.869 -98.5738 189.969 -97.8857 191.628 -97.231C192.128 -97.9291 192.311 -98.6038 191.266 -99.5407ZM206.889 24.616C207.566 24.5508 207.792 24.282 207.681 23.948C207.551 23.5722 207.681 23.0211 206.566 23.0896C206.001 23.128 205.586 23.3751 205.615 23.7559C205.645 24.2269 205.962 24.5692 206.889 24.616ZM180.71 -122.143C180.678 -121.644 181.09 -121.327 181.957 -121.25C182.655 -121.191 182.975 -121.433 183.011 -121.794C183.061 -122.299 182.54 -122.581 181.722 -122.688C180.951 -122.785 180.831 -122.452 180.71 -122.143ZM11.3808 -191.913C11.5162 -191.713 11.6515 -191.511 11.7868 -191.31C12.5371 -191.661 13.2432 -192.037 13.1549 -192.639C13.1373 -192.765 12.6077 -192.987 12.4282 -192.952C11.5544 -192.806 11.3337 -192.392 11.3808 -191.913ZM28.7365 -4.74688C28.9277 -4.51641 29.0543 -4.05549 29.4426 -3.96529C30.3341 -3.7649 30.7695 -4.18741 30.9931 -4.6233C31.1726 -4.97903 31.0608 -5.34142 30.4194 -5.45666C29.5309 -5.61532 28.9895 -5.33308 28.7365 -4.74688ZM9.39486 -184.897C10.1775 -185.171 10.2128 -185.594 9.97741 -186.009C9.77441 -186.372 9.50668 -186.95 8.64462 -186.676C8.27391 -186.56 8.37983 -185.876 8.41514 -185.457C8.43867 -185.163 8.55636 -184.782 9.39486 -184.897ZM29.5397 -109.202C29.9398 -108.758 30.5989 -108.527 31.4374 -108.686C32.0376 -108.796 32.2906 -109.164 31.8493 -109.446C31.5021 -109.668 30.8931 -109.848 30.3753 -109.873C29.6603 -109.908 29.5427 -109.544 29.5397 -109.202ZM30.6842 -148.006C30.5018 -147.967 30.1576 -147.915 30.1634 -147.882C30.2547 -147.261 29.7104 -146.586 30.593 -146.047C30.6754 -145.997 31.4109 -146.142 31.4727 -146.257C31.7552 -146.792 31.8316 -147.348 31.1785 -147.83C31.0696 -147.915 30.8519 -147.951 30.6842 -148.006ZM68.6025 114.722C68.9115 114.623 69.4999 114.508 69.4852 114.431C69.391 114.009 69.1498 113.598 68.9585 113.184C68.6408 113.423 68.2377 113.645 68.0259 113.914C67.764 114.253 67.97 114.552 68.6025 114.722ZM80.1534 131.012C80.1328 130.661 79.918 130.327 79.259 130.319C78.5882 130.305 78.2557 130.639 78.1674 130.99C78.0851 131.319 78.0468 131.782 78.7117 131.85C79.7032 131.957 79.9386 131.448 80.1534 131.012ZM88.5973 124.837C87.7765 125.035 87.5588 125.47 87.5264 125.895C87.5029 126.232 87.9501 126.548 88.6179 126.441C89.4417 126.309 89.8507 125.928 89.736 125.424C89.6506 125.06 89.2681 124.851 88.5973 124.837ZM125.109 128.677C125.683 128.655 126.316 128.583 126.383 128.224C126.495 127.633 125.548 127.586 124.868 127.498C124.306 127.424 123.656 127.613 123.635 127.929C123.603 128.416 124.265 128.647 125.109 128.677ZM159.603 128.724C159.462 128.887 159.324 128.976 159.303 129.079C159.168 129.682 159.644 130.13 160.471 130.469C160.995 130.686 161.683 130.704 161.868 130.34C162.11 129.883 161.471 129.545 160.85 129.271C160.442 129.088 160.033 128.912 159.603 128.724ZM163.94 130.678C164.096 131.22 164.334 131.606 164.972 131.541C165.861 131.453 166.002 130.99 165.782 130.554C165.608 130.212 165.767 129.554 164.708 129.767C164.246 129.858 164.105 130.469 163.94 130.678ZM185.982 117.057C185.85 116.881 185.715 116.706 185.582 116.531C185 116.796 184.273 117.005 183.876 117.339C183.561 117.608 183.929 118.002 184.608 117.967C185.462 117.92 185.712 117.454 185.982 117.057ZM192.114 126.668C193.32 126.885 194.338 126.745 195.032 126.15C195.138 126.06 194.818 125.651 194.606 125.624C193.152 125.449 192.699 126.108 192.114 126.668ZM204.38 116.193C205.397 116.163 205.615 115.752 205.495 115.308C205.368 114.842 204.697 114.547 203.897 114.568C203.167 114.59 202.27 114.774 202.376 115.313C202.505 115.906 203.317 116.18 204.38 116.193ZM183.39 -126.043C184.185 -125.936 184.561 -126.18 184.644 -126.509C184.755 -126.963 184.482 -127.462 183.764 -127.616C182.931 -127.796 182.378 -127.446 182.29 -126.941C182.199 -126.44 182.561 -126.12 183.39 -126.043ZM192.264 -129.685C192.643 -129.866 193.232 -130.019 193.441 -130.276C193.997 -130.946 193.185 -131.327 192.223 -131.529C191.655 -131.652 190.919 -131.442 190.854 -131.11C190.74 -130.537 191.072 -130.002 192.264 -129.685ZM185.729 -186.834C186.621 -186.996 186.8 -187.429 186.841 -187.868C186.862 -188.129 186.891 -188.613 186.038 -188.342C185.382 -188.139 184.873 -187.75 185.073 -187.262C185.141 -187.095 185.503 -186.971 185.729 -186.834ZM144.766 -215.12C145.493 -215.12 146.054 -215.342 145.949 -215.666C145.822 -216.055 145.44 -216.466 144.957 -216.753C144.433 -217.061 143.948 -216.803 143.895 -216.458C143.818 -215.937 143.951 -215.419 144.766 -215.12ZM187.162 -82.6782C187.906 -82.7851 187.992 -83.1024 187.88 -83.4264C187.73 -83.8673 187.439 -84.3165 186.591 -84.4485C185.823 -84.5687 185.517 -84.2564 185.597 -83.884C185.72 -83.3245 186.065 -82.8235 187.162 -82.6782ZM184.438 -102.649C186.224 -103.576 185.303 -104.504 185.591 -105.324C183.429 -104.663 183.902 -103.773 184.438 -102.649ZM9.25953 -188.553C10.3069 -188.69 10.1745 -189.202 10.0245 -189.578C9.9274 -189.822 9.35957 -190.148 8.93884 -190.181C7.93851 -190.266 7.7561 -189.792 7.77963 -189.353C7.80612 -188.843 8.40043 -188.613 9.25953 -188.553ZM13.8758 -138.565C13.8522 -139.019 13.6786 -139.515 12.7489 -139.507C11.4779 -139.502 11.2867 -138.877 11.3632 -138.326C11.422 -137.898 11.7486 -137.438 12.796 -137.569C13.7022 -137.685 13.9081 -138.096 13.8758 -138.565ZM83.5427 131.93C84.0841 131.075 83.9693 130.263 83.3662 129.485C83.1426 129.198 82.6542 129.228 82.563 129.51C82.2923 130.357 82.0187 131.22 83.5427 131.93ZM60.7353 -218.784C61.6826 -218.839 62.0828 -219.168 62.1181 -219.678C62.1534 -220.174 61.9769 -220.601 60.8735 -220.519C60.0262 -220.451 59.373 -220.155 59.3642 -219.643C59.3554 -219.168 59.7026 -218.766 60.7353 -218.784ZM93.7696 125.868C95.1966 125.739 95.7791 125.051 95.9821 124.291C96.0616 123.996 95.2584 123.864 94.6905 123.922C93.4313 124.059 92.631 124.462 92.6369 125.235C92.6398 125.577 92.8605 125.86 93.7696 125.868ZM201.979 -173.836C203.665 -175.009 205.036 -175.642 204.026 -176.809C203.906 -176.941 203.244 -177.061 203.017 -176.993C201.511 -176.543 202.202 -175.598 201.685 -174.915C201.623 -174.828 201.737 -174.701 201.979 -173.836ZM82.663 127.186C82.9837 127.002 83.7252 126.75 83.6692 126.583C83.3898 125.723 82.1305 125.731 80.936 125.774C80.3505 125.791 79.6326 125.936 79.7386 126.287C80.0004 127.164 81.3979 127.057 82.663 127.186ZM192.514 148.083C192.808 147.711 193.458 147.291 193.335 146.962C193.099 146.351 192.467 145.71 190.999 145.915C190.41 145.997 190.16 146.395 190.387 146.693C190.799 147.236 190.981 147.921 192.514 148.083ZM165.729 -200.716C165.017 -200.472 164.157 -200.156 164.402 -199.715C164.787 -199.027 165.885 -198.71 167.188 -198.852C167.826 -198.916 168.174 -199.255 168.129 -199.595C168.015 -200.42 166.953 -200.647 165.729 -200.716ZM179.718 118.276C179.207 117.287 178.948 116.988 178.909 116.681C178.83 115.958 177.933 115.555 177.012 115.843C175.164 116.415 176.841 116.851 177.509 117.27C177.88 117.501 178.38 117.673 179.718 118.276ZM27.6126 -11.7761C28.0833 -13.0587 28.2099 -14.1326 27.0301 -15.5087C26.1857 -14.004 25.1706 -12.87 27.6126 -11.7761ZM31.0137 -130.908C30.4106 -129.027 30.6401 -127.72 31.6904 -126.432C31.7493 -127.723 32.9673 -129.014 31.0137 -130.908ZM100.266 117.531C100.648 118.249 101.987 118.112 103.049 118.147C103.852 118.177 104.703 117.917 104.403 117.364C104.008 116.634 102.728 116.42 101.593 116.41C100.828 116.402 100.328 116.868 100.266 117.531ZM158.267 116.856C158.603 116.1 158.817 115.774 158.879 115.44C159.003 114.749 158.826 114.081 157.664 113.688C157.446 113.615 156.82 113.748 156.599 113.894C155.511 114.615 156.54 115.081 157.279 115.607C157.623 115.851 157.755 116.188 158.267 116.856ZM174.14 160.229C174.284 159.533 173.978 159.147 173.378 159.224C172.078 159.388 170.524 159.511 170.259 160.481C170.115 160.994 170.807 161.35 171.651 161.383C173.434 161.46 173.996 160.759 174.14 160.229ZM182.664 169.797C182.084 169.241 181.195 169.045 180.192 169.186C179.192 169.331 178.374 169.665 179.039 170.353C179.407 170.734 179.963 171.101 180.878 170.836C181.666 170.605 182.731 170.493 182.664 169.797ZM183.855 119.502C182.584 119.959 182.134 120.096 181.734 120.272C180.942 120.617 179.207 120.19 179.277 121.212C179.289 121.396 179.592 121.661 179.883 121.743C181.743 122.256 182.057 121.217 182.881 120.716C183.123 120.57 183.199 120.337 183.855 119.502ZM182.534 -101.652C185.362 -100.404 186.859 -100.635 189.26 -101.682C186.824 -101.673 185.317 -101.665 182.534 -101.652ZM194.923 -111.452C193.255 -110.246 191.278 -109.673 192.234 -108.262C192.308 -108.155 193.049 -108.053 193.211 -108.13C194.779 -108.878 195.344 -109.827 194.923 -111.452ZM204.026 -53.9617C204.268 -55.1541 205.909 -56.0342 204.056 -56.8976C203.741 -57.0429 202.714 -57.0095 202.458 -56.8375C201.096 -55.949 203.529 -55.3411 203.138 -54.4827C203.114 -54.4309 203.385 -54.3324 204.026 -53.9617ZM25.1588 11.4643C26.3181 10.1266 27.5979 9.27989 26.218 8.12087C26.0768 8.0023 25.356 7.93382 25.1942 8.01399C23.8555 8.73211 24.8058 9.71243 24.3851 10.5458C24.3468 10.6176 24.5322 10.7328 25.1588 11.4643ZM192.384 -155.15C193.302 -155.265 193.873 -155.598 193.903 -156.03C193.938 -156.598 193.391 -157.129 192.337 -157.201C191.44 -157.266 191.072 -156.803 191.134 -156.346C191.205 -155.838 191.175 -155.235 192.384 -155.15ZM194.197 -164.542C193.391 -163.794 192.837 -163.235 192.202 -162.704C191.752 -162.328 191.187 -161.917 191.973 -161.566C192.532 -161.323 193.399 -161.194 194.123 -161.199C195.535 -161.207 195.394 -161.892 195.324 -162.405C195.235 -163.046 195.391 -163.743 194.197 -164.542ZM198.145 -97.201C199.943 -98.0527 201.729 -98.5604 200.902 -99.7495C200.546 -100.25 199.048 -100.438 198.392 -100.19C196.474 -99.4756 197.977 -98.5103 198.145 -97.201ZM196.244 143.021C196.021 142.191 194.959 141.7 193.744 141.311C193.694 141.294 192.849 141.794 192.846 142.054C192.84 142.909 193.538 143.577 195.162 143.696C195.771 143.744 196.194 143.44 196.244 143.021ZM117.736 127.792C117.869 127.271 118.151 126.835 118.033 126.432C117.922 126.043 118.136 125.03 116.765 125.564C115.574 126.027 115.041 124.988 114.326 125.462C113.538 125.988 114.253 126.493 114.791 126.898C115.356 127.326 116.053 127.728 117.736 127.792ZM57.6931 -213.542C55.4012 -213.295 56.2809 -215.847 53.324 -214.898C52.5443 -214.649 52.6267 -214.076 53.0004 -213.687C54.2037 -212.426 55.9013 -213.098 57.6931 -213.542ZM30.8843 -144.448C29.5838 -142.875 29.8575 -141.823 30.5842 -140.806C30.8696 -140.412 31.4639 -140.014 32.3759 -140.178C33.2203 -140.327 33.5204 -140.784 33.2409 -141.225C32.6643 -142.13 31.9464 -143.012 30.8843 -144.448ZM30.8225 -134.654C32.5466 -135.953 33.541 -137.287 30.3488 -138.587L30.8225 -134.654ZM196.851 -38.497C196.177 -40.1603 197.963 -41.8872 196.533 -43.5038C197.101 -41.8154 195.718 -40.1353 196.851 -38.497ZM68.6702 125.3C67.0667 126.21 66.799 127.044 67.0903 127.95C67.2403 128.425 67.814 128.759 68.6879 128.715C69.6264 128.669 69.9618 128.241 69.7941 127.77C69.5293 127.035 69.138 126.312 68.6702 125.3ZM187.571 -217.831C187.224 -218.886 185.07 -219.673 186.244 -220.922C186.544 -221.242 186.094 -221.566 185.441 -221.627C185.12 -221.657 184.464 -221.541 184.449 -221.465C184.273 -220.494 183.817 -219.464 184.211 -218.562C184.482 -217.937 185.997 -217.535 187.571 -217.831ZM194.126 -105.787C191.537 -104.235 193.185 -103.09 195.038 -101.648C197.48 -103.435 195.021 -104.512 194.126 -105.787ZM189.266 133.483C192.643 131.404 192.64 131.401 189.263 129.776C189.266 131.075 189.266 132.281 189.266 133.483ZM54.036 -209.831C50.9997 -210.272 49.0167 -210.421 47.9458 -209.099C47.478 -208.523 47.9428 -207.992 49.1491 -207.83C51.7794 -207.471 52.1295 -208.784 54.036 -209.831ZM84.4577 113.448C87.6353 112.294 85.8935 110.776 86.4084 109.592C86.6055 109.139 85.0138 108.873 84.04 108.912C83.0426 108.95 82.8278 109.523 83.0808 109.912C83.7781 110.986 84.24 112.097 84.4577 113.448ZM171.289 -175.022C170.165 -173.628 170.386 -172.515 171.163 -171.443C171.554 -170.9 172.384 -170.451 173.502 -170.81C174.493 -171.126 174.643 -172.153 174.043 -172.216C171.074 -172.512 173.078 -174.184 171.289 -175.022ZM12.8931 -130.151C14.9879 -133.409 14.8702 -133.872 11.2926 -135.196C12.5871 -133.483 10.8718 -131.784 12.8931 -130.151ZM10.6718 -169.464C10.2569 -167.086 10.3334 -164.693 11.5397 -161.9C12.3105 -164.74 12.6636 -167.116 10.6718 -169.464ZM22.0902 4.76907C22.2697 5.33856 22.3726 6.08173 23.576 6.06504C25.6296 6.03497 26.0562 5.10642 26.0591 4.13279C26.0591 3.45307 25.3324 3.08065 24.1821 3.10571C22.2579 3.14411 22.0902 3.94073 22.0902 4.76907ZM186.633 -40.8618C187.486 -40.1136 188.863 -40.4643 189.934 -40.2923C190.825 -40.152 191.987 -40.2889 192.296 -40.977C192.626 -41.7085 192.27 -42.2462 190.916 -42.5969C189.713 -42.9092 188.718 -43.128 187.939 -42.3197C187.474 -41.8354 187.059 -41.3394 186.633 -40.8618ZM156.299 169.951C157.276 169.682 158.164 169.438 159.047 169.194C160.394 168.822 161.639 168.317 160.653 167.404C160.136 166.919 158.891 166.292 157.882 167.177C156.94 168.01 153.71 167.947 154.91 169.583C155.149 169.912 155.781 169.994 156.299 169.951ZM175.12 165.932C175.082 165.133 174.028 165.294 173.066 165.244C170.83 165.124 169.703 165.625 169.803 166.924C169.851 167.574 170.315 167.98 171.601 167.87C173.549 167.703 174.893 167.168 175.12 165.932ZM9.41546 -198.728C6.65867 -196.539 6.65867 -196.539 9.67143 -193.957C12.6165 -195.662 9.05064 -196.846 9.41546 -198.728ZM28.6924 15.0766C27.5067 14.5639 26.2474 13.8842 24.747 13.9828C23.12 14.0896 22.8699 15.0566 22.9876 15.8298C23.17 17.0005 24.8588 16.7233 26.1651 16.6932C27.8745 16.6598 28.3275 15.9317 28.6924 15.0766ZM12.6047 -1.95121C12.0016 -0.339622 11.3249 1.26363 10.8395 2.88358C10.6629 3.47813 11.2984 4.00753 12.4665 4.06431C13.6522 4.11942 14.37 3.64513 14.3553 3.03722C14.3112 1.35716 14.3318 -0.339622 12.6047 -1.95121ZM209.366 12.1707C206.701 12.7686 205.35 11.7165 203.656 11.1487C203.091 10.96 202.099 10.7813 201.69 11.3741C201.405 11.79 201.396 12.2041 202.091 12.5632C204.524 13.8074 206.663 13.8124 209.366 12.1707ZM11.3808 -149.836C15.0703 -152.401 11.7898 -154.282 11.6338 -156.266C9.24777 -154.282 10.6041 -152.319 11.3808 -149.836ZM193.061 -93.5369C194.409 -93.2981 194.7 -93.9477 195.418 -94.0128C197.292 -94.1782 198.528 -94.9531 198.107 -95.8031C197.783 -96.4494 195.986 -97.2444 194.779 -97.2828C192.387 -97.3513 193.267 -96.0136 193.014 -95.2353C192.849 -94.726 192.39 -94.1748 193.061 -93.5369ZM187.895 -121.019C187.915 -121.934 187.971 -122.734 186.462 -122.85C184.538 -122.995 184.935 -122.173 185.129 -121.52C185.285 -120.998 185.547 -120.597 184.438 -120.126C182.266 -119.202 185.347 -118.506 185.164 -117.582C185.111 -117.322 186.056 -117.108 186.594 -117.257C188.418 -117.758 187.159 -118.591 187.244 -119.301C187.321 -119.955 187.724 -120.592 187.895 -121.019ZM170.365 -218.288C170.157 -219.223 169.818 -220.169 167.703 -220.135C165.09 -220.092 165.402 -218.804 165.281 -217.902C165.134 -216.839 166.296 -216.239 168.268 -216.296C170.677 -216.373 170.277 -217.42 170.365 -218.288ZM43.4413 139.81C42.0203 141.328 42.3086 142.7 41.882 143.978C41.7172 144.471 42.4616 144.821 43.2942 144.846C44.6358 144.885 46.0981 145.005 47.169 144.405C47.4338 144.26 47.2573 143.539 47.1308 143.525C43.5472 143.131 46.0716 140.917 43.4413 139.81ZM12.7342 -117.758C12.1958 -116.291 11.5456 -114.837 11.166 -113.362C11.0013 -112.726 11.2161 -111.934 12.9784 -112.041C14.2141 -112.115 15.3968 -112.353 15.3851 -113.217C15.3645 -114.768 14.9408 -116.286 12.7342 -117.758ZM161.136 145.863C160.524 145.175 160.003 144.539 158.567 144.671C156.352 144.88 155.072 145.62 155.216 146.984C155.36 148.374 156.914 149.267 158.923 148.963C162.101 148.472 159.397 146.732 161.136 145.863ZM171.81 -179.827C175.167 -181.575 174.072 -183.833 173.958 -185.949C173.925 -186.539 173.84 -187.476 172.116 -187.33C170.736 -187.215 170.03 -186.352 170.36 -185.777C171.272 -184.196 170.966 -182.718 170.268 -181.161C170.062 -180.704 170.804 -180.109 171.81 -179.827ZM178.153 -219.006C178.362 -220.319 178.362 -220.319 176.77 -220.481C175.605 -220.596 172.187 -219.31 172.01 -218.686C171.801 -217.949 174.087 -216.044 175.235 -216.159C178.133 -216.449 177.662 -217.941 178.153 -219.006ZM178.845 144.534C180.38 147.395 184.947 146.63 187.68 147.669C187.806 147.716 188.471 147.497 188.589 147.33C189.286 146.356 189.46 145.274 188.245 144.487C187.044 143.704 184.985 143.235 183.758 144.355C182.246 145.735 180.836 144.624 178.845 144.534ZM199.696 12.0806C198.813 9.77924 198.725 9.75418 200.246 7.97224C200.772 7.34264 201.729 6.97522 199.96 6.4575C198.369 5.99991 197.33 6.21034 196.365 6.91176C194.709 8.10919 197.601 9.75418 195.174 10.8882C196.6 11.3491 197.677 12.2643 199.696 12.0806ZM187.871 -135.043C187.6 -135.509 187.533 -136.013 187.074 -136.334C186.285 -136.876 186.238 -138.121 184.408 -137.767C182.94 -137.484 181.916 -136.693 182.472 -135.624C182.696 -135.196 182.672 -134.667 183.125 -134.355C184.229 -133.59 183.52 -131.644 186.462 -132.152C188.807 -132.559 186.677 -134.163 187.871 -135.043ZM134.059 126.868C138.117 124.868 137.602 122.319 137.628 119.951C137.64 118.655 135.36 119.288 133.109 118.72C136.757 121.614 130.573 123.971 134.059 126.868ZM185.815 159.717C185.726 157.908 182.366 155.291 180.901 155.54C179.412 155.795 177.791 156.502 178.492 157.489C179.309 158.639 178.244 160.344 181.304 160.892C181.707 159.399 185.429 160.717 185.815 159.717ZM14.6907 -37.3129C16.1912 -38.2197 16.7179 -39.19 16.3766 -39.9633C15.0703 -42.931 17.118 -45.8085 16.7443 -48.7327C16.6561 -49.4291 17.6152 -50.3443 15.2998 -50.69C14.0552 -49.3824 13.5756 -48.1298 13.8905 -46.5483C14.2759 -44.5893 15.2497 -42.5502 13.5256 -40.5445C12.5959 -39.4639 13.7757 -38.4502 14.6907 -37.3129ZM173.358 177.685C174.467 176.881 177.171 176.262 174.414 175.069C173.466 174.658 173.616 174.034 174.29 173.585C175.879 172.516 174.705 171.696 173.458 171.055C172.372 170.493 170.607 170.553 169.603 171.063C168.062 171.844 168.709 172.973 169.377 173.88C170.342 175.193 172.525 176.138 173.358 177.685ZM196.2 -127.972C194.826 -127.391 193.299 -126.509 192.949 -126.642C191.628 -127.133 190.457 -127.334 189.225 -126.799C187.512 -126.056 189.466 -125.428 189.619 -124.735C190.128 -122.425 190.819 -122.096 193.755 -123.401C195.365 -124.116 197.616 -123.76 199.048 -124.944C195.683 -125.226 197.571 -127.013 196.2 -127.972ZM15.0585 -34.0847C13.2402 -33.6572 12.5694 -32.7253 12.8548 -32.1274C14.1258 -29.4804 13.4256 -26.9068 12.6459 -24.3065C12.5518 -23.9909 12.7165 -23.6352 12.8372 -23.3112C13.1226 -22.5413 13.8758 -22.0503 15.3145 -22.4394C16.4825 -22.7551 18.3154 -23.1659 17.0827 -24.1145C14.2729 -26.2872 15.6587 -28.6386 15.8499 -30.9216C15.9411 -32.0205 16.303 -33.0543 15.0585 -34.0847ZM15.0291 -52.0962C18.9627 -55.0004 16.3354 -58.1 17.1592 -60.9425C17.3887 -61.7424 15.6999 -62.4939 14.3465 -62.9733C14.0258 -63.0852 13.2432 -62.8497 12.7577 -62.696C12.5724 -62.6359 12.5194 -62.1917 12.5694 -62.1783C16.0471 -61.4602 14.0994 -59.9171 13.7934 -58.8816C13.1137 -56.582 14.1288 -54.4994 15.0291 -52.0962ZM8.99768 -183.417C7.55603 -182.37 9.43312 -181.375 8.66522 -180.669C5.9967 -178.232 8.89471 -175.496 7.1559 -172.986C6.70282 -172.332 6.84404 -170.794 9.63907 -170.895C11.9575 -170.977 11.7368 -171.994 11.678 -172.888C11.4867 -175.77 11.2749 -178.651 11.0513 -181.529C10.9895 -182.31 10.9689 -183.124 8.99768 -183.417ZM20.3602 -14.5117C20.2484 -16.317 16.7767 -16.0815 16.3324 -17.5044C16.0441 -18.438 14.676 -18.7069 13.1079 -18.3478C11.3779 -17.9537 10.7747 -17.1287 11.0807 -16.1751C11.2808 -15.5521 12.6607 -14.829 12.3664 -14.4148C10.2422 -11.4121 12.5018 -8.39428 11.984 -5.40656C11.9045 -4.96065 12.1458 -4.48301 13.152 -4.43125C14.1082 -4.38448 14.4789 -4.81536 14.8261 -5.22619C15.6675 -6.22655 13.6845 -7.3505 15.4233 -8.36922C18.692 -10.2848 17.5181 -12.1987 14.929 -14.1142C16.7767 -14.2478 18.4802 -14.3764 20.3602 -14.5117ZM135.878 -215.077C133.183 -215.521 130.485 -215.71 127.787 -215.671C124.439 -215.628 123.035 -214.183 123.997 -212.465C125.006 -210.669 126.992 -209.31 128.805 -207.8C131.5 -205.556 131.123 -205.41 136.428 -206.466C135.819 -207.869 133.612 -208.592 132.162 -209.587C129.67 -211.297 129.661 -212.071 132.791 -213.311C133.883 -213.747 135.522 -213.794 135.878 -215.077ZM178.118 -206.057C177.944 -205.599 177.838 -205.035 178.6 -204.838C180.889 -204.256 183.752 -204.589 185.647 -203.218C186.112 -202.884 187.247 -203.585 187.471 -204.188C187.959 -205.509 186.662 -206.847 187.633 -208.181C188.127 -208.856 187.906 -209.639 186.53 -209.831C185.082 -210.031 184.558 -209.228 184.188 -208.612C182.493 -205.808 182.519 -205.804 177.959 -205.958C178.506 -207.74 175.102 -206.997 173.925 -208.099C175.09 -209.938 177.491 -211.952 175.102 -214.358C173.519 -213.649 172.534 -211.742 170.315 -212.473C167.512 -213.393 168.079 -212.259 168.379 -211.678C169.186 -210.108 169.671 -208.639 167.606 -207.257C166.614 -206.599 167.559 -205.992 167.823 -205.367C168.153 -204.602 168.659 -203.84 167.662 -203.111C167.091 -202.686 166.064 -202.19 167.341 -201.76C168.262 -201.447 169.686 -200.784 170.548 -201.401C171.633 -202.174 174.211 -202.102 174.143 -203.418C174.064 -205.013 176.715 -205.218 178.118 -206.057ZM148.644 128.976C150.403 128.438 153.136 129.529 154.148 127.48C155.213 125.325 151.206 125.958 150.421 124.961C150.927 124.714 151.183 124.517 151.521 124.44C152.665 124.185 154.784 124.612 154.575 123.393C154.313 121.861 152.277 123.256 151.603 122.982C149.479 122.119 148.355 122.401 147.92 123.73C147.567 124.807 146.534 125.547 145.125 126.224C143.686 126.915 143.739 127.882 144.557 128.694C145.645 129.781 147.281 129.165 148.705 128.912C147.028 131.995 147.84 134.709 152.404 136.912C154.422 135.855 157.164 134.953 154.287 133.084C153.966 132.875 153.992 132.415 154.092 132.094C154.478 130.858 153.566 130.357 151.436 130.135C150.426 130.028 149.185 129.661 148.644 128.976ZM172.807 -196.415C172.663 -195.697 171.984 -195.166 171.045 -194.705C168.121 -193.264 168.197 -191.584 169.294 -189.934C172.057 -189.625 171.639 -191.948 174.443 -191.327C174.961 -191.212 175.455 -191.883 175.023 -192.042C171.992 -193.157 174.04 -194.029 175.223 -195.059C176.453 -196.133 176.311 -196.185 172.64 -196.317C172.651 -196.942 174.223 -197.326 173.413 -198.117C172.19 -198.079 171.483 -197.471 171.192 -197.013C170.574 -196.048 172.131 -196.522 172.807 -196.415ZM142.58 -215.872C141.941 -217.321 143.601 -219.135 140.444 -220.434C139.82 -218.497 140.676 -217.069 142.727 -215.841C141.288 -216.145 139.591 -216.745 139.396 -215.183C139.302 -214.427 139.414 -213.281 140.853 -213.251C143.092 -213.196 142.75 -214.315 142.477 -215.219C142.415 -215.419 142.583 -215.638 142.58 -215.872ZM13.7051 -120.627C12.7489 -120.725 12.3458 -120.323 11.9192 -119.972C11.5014 -119.626 10.8777 -119.186 11.5956 -118.852C12.2958 -118.523 13.049 -118.878 13.5845 -119.202C14.3877 -119.685 14.167 -120.194 13.5609 -120.685C15.4704 -122.008 14.8525 -123.307 13.4286 -124.59C13.3726 -124.64 12.9313 -124.637 12.8637 -124.585C11.4632 -123.436 13.3491 -122.34 13.0931 -121.195C13.0549 -121.024 13.4874 -120.819 13.7051 -120.627ZM115.097 150.9C114.497 153.213 114.497 153.213 117.686 153.871C117.545 152.61 116.318 151.78 114.93 150.999C114.8 150.459 114.709 149.917 114.521 149.382C114.382 148.985 114.338 148.429 113.244 148.541C111.955 148.672 112.079 149.267 112.237 149.801C112.511 150.72 113.467 151.101 115.097 150.9ZM192.667 -223.474C193.111 -222.525 193.929 -221.64 192.796 -220.583C192.114 -219.946 191.416 -218.681 191.952 -218.36C194.971 -216.565 192.258 -215.123 191.184 -213.734C189.86 -212.02 190.896 -210.557 192.04 -209.185C193.149 -207.852 193.547 -206.967 191.016 -206.068C189.257 -205.444 187.733 -204.569 190.434 -203.478C191.199 -203.171 191.175 -202.631 190.596 -202.286C188.877 -201.255 188.995 -200.061 189.21 -198.789C189.333 -198.035 187.818 -197.155 187.23 -197.706C185.197 -199.609 184.058 -197.539 184.158 -197.416C185.285 -195.988 183.249 -194.289 185.103 -193.055C186.394 -192.785 186.786 -193.247 187.253 -193.58C187.895 -194.037 187.736 -195.124 189.516 -194.679C190.849 -194.35 191.658 -193.628 191.581 -192.768C191.558 -192.494 190.76 -192.269 190.572 -191.968C190.069 -191.17 190.372 -190.318 191.458 -189.835C192.364 -189.43 193.052 -190.784 194.4 -190.345C194.332 -190.066 194.423 -189.759 194.211 -189.66C189.354 -187.38 189.822 -184.166 189.822 -181.134C189.822 -179.446 188.633 -177.771 189.61 -176.078C190.075 -175.278 190.145 -173.97 192.396 -175.401C193.299 -175.979 193.691 -175.346 193.973 -175C194.417 -174.453 194.144 -173.636 195.641 -173.504C197.121 -174.389 195.797 -175.05 195.415 -175.752C195.176 -176.198 194.847 -176.872 195.603 -176.971C198.557 -177.338 198.807 -178.501 198.016 -179.638C199.401 -180.084 199.719 -179.763 200.102 -179.52C201.058 -178.898 202.114 -178.317 203.679 -178.801C205.345 -179.314 203.191 -179.939 203.718 -180.523C204.597 -181.512 203.815 -182.773 204.968 -183.658C206.807 -183.743 207.904 -183.093 207.754 -182.524C207.016 -179.737 209.149 -177.048 207.807 -174.149C206.595 -171.537 206.31 -168.637 207.107 -165.88C207.686 -163.866 207.122 -162.204 204.727 -160.678C203.453 -159.861 203.114 -159.13 205.818 -158.869C208.198 -158.642 207.213 -157.6 206.368 -157.091C204.259 -155.825 204.583 -154.509 205.209 -152.994C206.851 -148.998 204.259 -145.487 200.984 -142.059C199.952 -140.985 197.277 -141.878 196.562 -140.601C196.315 -139.604 199.537 -139.883 198.813 -138.408C195.471 -138.737 192.434 -138.356 190.925 -136.41C191.122 -135.449 192.952 -135.569 193.229 -135.632C198.016 -136.761 199.787 -134.133 202.791 -133.149C204.215 -132.686 203.364 -131.455 201.308 -131.349C196.586 -131.11 197.842 -130.562 200.525 -129.318C202.158 -128.561 201.985 -127.865 199.175 -128.326C197.904 -128.536 198.001 -127.484 198.551 -127.103C201.396 -125.089 201.405 -122.973 199.551 -120.759C198.934 -120.016 198.987 -119.489 200.502 -119.164C201.096 -119.035 202.332 -119.177 201.902 -118.437C201.646 -117.985 200.87 -117.557 200.131 -117.667C197.616 -118.048 196.598 -117.352 195.871 -116.133C195.203 -115.012 195.138 -114.516 197.804 -114.573C200.337 -114.628 199.513 -113.461 198.701 -112.844C196.309 -111.037 196.171 -109.681 199.145 -108.198C200.216 -107.667 200.049 -107.377 199.71 -106.847C199.222 -106.107 198.731 -105.368 198.325 -104.611C197.986 -103.973 197.436 -103.153 198.881 -102.836C200.237 -102.542 200.516 -103.649 202.143 -103.965C202.491 -102.452 202.814 -100.934 204.026 -99.5741C205.306 -98.1295 204.177 -96.5647 205.036 -95.1401C202.588 -94.5122 203.259 -96.2357 202.226 -96.2056C200.125 -96.2357 200.237 -95.3155 199.628 -94.8195C198.136 -93.602 198.798 -91.5061 195.032 -91.2122C194.976 -89.6941 195.783 -88.1259 194.312 -86.6796L194.453 -86.7915C193.432 -86.3941 192.193 -85.6843 192.602 -85.1883C194.35 -83.0757 193.502 -80.6174 195.559 -78.2108C197.277 -79.6905 196.144 -81.0582 196.568 -82.2891C197.024 -83.6184 197.654 -84.9278 198.213 -86.2438L198.092 -86.1235C202.105 -85.2267 200.99 -83.1408 201.27 -81.4557C201.449 -80.3702 199.063 -79.1644 201.796 -78.1674C201.911 -78.1256 201.82 -77.6931 201.623 -77.6163C200.661 -77.2439 197.939 -77.137 199.604 -76.2869C201.27 -75.4352 201.926 -73.563 204.274 -73.7C209.013 -73.9739 207.339 -72.2253 207.889 -71.058C206.015 -70.6906 206.059 -72.5076 204.259 -71.7761C202.844 -71.1983 202.032 -70.567 203.161 -69.5065C204.403 -68.3391 201.849 -67.1718 202.92 -65.9493C204.056 -64.6533 203.891 -63.0367 206.46 -62.0464C204.509 -60.9725 202.061 -60.5667 201.028 -59.2958C201.434 -58.6846 202.264 -59.0436 202.956 -59.0136C207.522 -58.8132 208.537 -58.1301 208.078 -55.6117C207.628 -53.1016 205.736 -51.0624 201.637 -49.6679C198.851 -50.032 200.908 -52.9312 196.598 -52.9179C196.603 -51.0324 191.99 -50.2975 192.749 -48.053C192.855 -47.7407 192.481 -47.5386 192.031 -47.6939C188.524 -48.8813 186.047 -46.3212 182.069 -47.3766C183.608 -46.0089 184.311 -45.2907 186.741 -45.5128C190.569 -45.8586 194.362 -46.3679 198.422 -46.0606C201.208 -45.8469 205.044 -45.5128 205.856 -48.1382C205.962 -48.4722 206.769 -48.4805 207.363 -48.3352C207.981 -48.1799 208.501 -47.8342 208.213 -47.552C207.286 -46.6368 208.025 -45.3926 207.045 -44.7045C204.244 -42.7289 204.456 -40.1303 202.105 -38.0227C200.261 -36.3676 201.917 -34.093 200.952 -32.1057C200.555 -31.2807 200.261 -30.3955 199.816 -29.5438L199.831 -29.5538C198.866 -29.4169 197.933 -29.2449 196.918 -29.472C196.059 -29.6691 195.371 -29.4419 194.912 -29.0228C193.523 -27.7569 194.253 -21.5844 196.027 -19.7105C196.824 -20.5322 196.995 -21.3789 196.839 -22.259C196.753 -22.7333 195.553 -23.3963 196.956 -23.6101C198.107 -23.7821 200.208 -24.2731 200.628 -23.2945C201.352 -21.6228 203.129 -22.062 205.012 -22.1605C205.977 -22.2123 206.977 -22.0369 207.957 -21.9551C209.458 -21.8315 210.632 -21.6445 210.173 -20.4721C209.652 -19.1644 212.432 -17.6848 209.405 -16.4322C208.507 -16.0598 209.525 -15.4152 209.849 -14.8975C210.579 -13.7301 212.297 -12.8199 212.544 -11.524C212.582 -11.3269 213.238 -11.1181 213.171 -10.9762C212.303 -8.92033 211.385 -6.87619 214.353 -5.04749C214.421 -5.00406 213.524 -4.3327 212.915 -4.08888C209.984 -2.93488 210.096 -1.34833 211.588 0.087921C214.374 2.7767 212.423 5.50056 211.747 8.07411C211.085 10.5842 210.623 12.9139 212.409 15.257C213.683 16.9287 212.982 18.694 212.506 20.2722C211.906 22.2846 211.906 24.1066 212.273 26.1541C212.794 29.0099 212.388 31.9826 212.409 34.9102C212.417 35.9022 212.438 36.8809 212.515 37.8645C212.62 39.3358 212.982 40.8021 212.356 42.4054C211.467 44.6884 212.673 47.2018 214.112 49.4847C214.474 50.0659 214.648 50.5152 214.345 51.0496C211.95 55.2397 211.52 59.485 212.5 63.8672C212.915 65.7227 211.926 67.6766 211.602 69.5872C211.143 72.3929 209.728 75.1635 210.67 78.0109C211.052 79.1566 210.105 79.9248 208.763 80.6863C206.851 81.7852 205.2 82.7472 208.463 84.2686C210.134 85.0435 210.564 86.3946 208.672 88.078C206.836 89.7196 206.339 92.0711 205.495 94.1403C204.644 96.2312 204.177 98.3855 208.401 99.7333C209.458 100.071 209.946 100.764 209.246 101.507C207.822 103.038 207.354 104.732 207.339 106.398C207.333 107.322 206.407 107.415 205.571 107.865C203.047 109.211 202.835 110.002 205.745 111.08C208.26 112.011 208.019 113.077 207.731 114.264C207.183 116.582 206.354 118.844 206.774 121.25C206.972 122.346 206.663 123.837 204.171 124.786C201.926 125.641 201.714 127.06 204.191 128.181C204.974 128.537 206.127 128.857 206.001 129.442C205.292 132.692 205.586 136.09 203.085 139.091C202.458 139.848 202.414 139.968 203.061 140.579C204.471 141.9 204.886 143.333 203.144 144.696C202.279 145.381 200.878 145.937 202.941 146.757C203.341 146.911 202.897 147.31 201.985 147.579C199.087 148.434 197.162 149.7 197.904 151.849C198.542 153.688 197.33 155.625 198.566 157.475C198.898 157.971 198.354 158.656 199.378 159.015C200.696 159.481 202.573 159.673 202.458 160.832C202.361 161.858 201.511 162.748 200.313 163.521C196.912 162.756 195.418 161.534 195.665 159.369C195.947 156.924 195.468 154.444 195.309 151.983C195.274 151.435 195.427 150.763 193.964 150.755C192.617 150.755 192.181 151.405 192.402 151.934C193.317 154.137 191.655 155.488 188.307 156.406C187.859 156.527 187.648 156.924 187.327 157.193C190.363 157.998 188.104 160.52 191.013 161.144C194.15 161.819 193.052 162.512 191.534 163.285C189.539 164.299 188.186 165.483 187.489 166.958C187.18 167.613 186.453 168.185 187.853 168.725C188.951 169.147 188.545 170.032 188.039 170.221C183.317 171.978 184.755 174.936 183.596 177.361C182.681 179.276 180.716 180.178 177.309 179.528C174.549 178.997 172.051 178.677 169.347 179.644C167.691 180.238 165.643 180.811 163.901 179.707C162.286 178.677 162.636 177.437 163.307 176.24C163.996 175.013 162.889 172.636 161.221 171.973C160.745 171.781 160.244 171.759 159.618 171.973C155.505 173.376 154.395 173.097 153.472 170.674C152.727 168.715 152.474 166.744 150.93 164.812C149.909 163.534 148.849 161.55 151.421 160.015C152.571 159.322 152.18 158.289 152.645 157.434C154.334 154.321 153.61 153.718 148.185 153.606C147.273 153.589 146.01 153.82 145.64 153.093C145.113 152.054 146.772 152.119 147.781 151.879C148.708 151.662 150.185 151.345 149.926 150.862C148.694 148.596 151.812 147.455 153.457 145.91C154.172 145.241 154.154 144.449 153.675 143.602C152.586 143.961 151.592 144.32 150.55 144.619C149.829 144.825 148.985 144.967 148.364 144.534C147.743 144.107 148.143 143.769 148.791 143.41C151.389 141.986 146.484 141.862 147.317 140.785C148.611 139.113 150.497 142.482 151.998 140.635C152.51 140.003 153.301 139.486 152.557 138.779C151.942 138.198 151.221 138.138 150.12 138.515C148.541 139.058 147.09 138.39 146.799 137.729C145.893 135.654 142.118 134.996 140.506 133.248C139.505 132.166 137.307 131.853 135.633 133.163C134.115 134.35 130.293 134.829 133.103 137.244C134.854 138.749 130.979 138.924 128.981 139.9C128.272 138.275 127.375 137.189 128.122 135.586C129.411 132.815 128.184 132.541 123.1 133.021C120.234 133.29 116.921 135.219 114.062 132.854C113.709 132.563 112.776 132.653 112.526 132.952C110.502 135.342 108.001 132.884 105.574 133.59C106.135 131.922 109.922 131.524 108.477 129.806C109.198 130.228 110.101 130.694 110.702 129.883C111.225 129.168 111.284 128.335 110.346 127.591C108.519 128.066 108.798 129.041 108.595 129.896C102.178 130.597 102.222 130.597 102.773 133.999C102.896 134.774 102.781 135.586 102.475 136.342C102.158 137.137 102.328 137.69 103.77 137.929C104.935 138.121 105.853 137.767 106.012 137.167C106.624 134.843 110.781 136.77 112.179 135.457C113.659 136.484 117.057 135.543 118.022 137.57C118.381 138.321 119.051 139.815 121.617 140.357C123.065 140.661 123.585 142.179 125.771 142.298C125.08 143.991 120.911 143.043 121.502 145.406C121.488 145.386 122.347 145.342 123.07 145.299C127.042 145.047 127.31 145.043 127.036 147.129C126.845 148.626 125.936 150.067 126.669 151.613C126.957 152.221 125.998 152.597 124.853 152.687C123 152.833 123.212 152.337 123.285 151.512C123.379 150.459 121.099 150.07 120.246 148.642C118.584 151.021 118.631 153.081 118.348 155.107C110.299 154.137 107.462 154.778 105.212 158.001C103.476 156.702 102.202 155.381 101.369 153.931C99.039 153.674 99.6863 155.406 97.3208 155.419C95.023 154.748 95.6173 152.44 92.3839 151.986C92.9311 151.46 93.0517 151.169 93.3342 151.101C94.9818 150.703 97.5944 151.062 97.5591 149.382C97.5297 148.04 96.8353 147.091 93.9579 146.844C92.325 146.702 91.3747 145.833 92.9841 144.8C93.4489 144.496 93.5107 143.966 93.6343 143.525C94.2168 141.465 93.499 140.848 89.9066 140.242C89.9919 139.549 91.0011 139.853 91.616 139.708C93.6578 139.22 93.7785 137.967 92.072 137.844C88.8121 137.6 89.3623 136.573 89.6742 135.509C90.4009 133.051 90.4627 133.059 88.4502 129.656C85.9377 131.782 88.4591 134.278 86.6085 136.189C85.2345 136.312 84.8461 135.882 84.6019 135.457C83.9341 134.303 82.0334 134.372 80.7359 134.512C79.0619 134.692 79.3443 135.77 79.3414 136.531C79.3384 137.749 79.9239 138.921 79.1089 140.199C78.4558 141.229 78.5764 142.303 75.7961 141.944C74.1779 141.733 74.5368 142.627 74.2573 143.059C73.6483 144.005 73.3688 145.035 71.3858 145.449C69.8118 145.005 70.1795 144.183 70.9239 143.769C73.6571 142.248 69.6617 141.426 69.9471 140.169C70.2325 138.921 74.122 138.36 71.6418 136.433C70.0913 137.962 65.3985 137.663 65.8546 140.297C65.9311 140.741 65.2191 140.635 64.4482 140.207C62.8212 139.31 60.8824 139.664 61.1501 140.776C62.1151 144.791 56.3161 148.258 58.8905 152.512C59.8879 154.159 58.9111 156.647 54.798 157.647C54.0683 157.903 53.3269 158.16 52.5855 158.416C51.4351 158.694 50.4878 158.451 50.3259 157.818C49.9346 156.296 49.2874 154.86 50.017 153.2C51.6528 149.486 50.7437 148.505 45.9922 146.817C44.5387 146.299 42.9441 146.206 41.4819 146.672C40.1402 147.104 40.6669 147.784 41.0876 148.459C41.7672 149.549 40.661 150.13 38.9663 150.464L39.2223 150.528C38.1925 149.968 37.8277 148.848 35.6564 149.199C34.7532 150.1 35.171 151.127 35.1621 152.076C35.1474 153.764 36.9009 153.003 38.2661 152.641L38.066 152.559C37.3923 153.167 41.4318 154.496 37.1275 154.543C34.6355 154.568 34.2913 155.548 34.2412 156.634C34.1618 158.412 34.1294 160.191 34.0706 162.217C31.2873 159.81 31.2873 159.81 30.5665 153.871C26.7035 154.663 26.7035 154.663 28.3393 157.206C26.1739 157.412 23.7084 157.001 22.3873 158.25C20.8663 157.377 21.7666 156.629 22.152 156.159C23.0905 155.009 23.5083 154.23 21.1222 153.43C19.5658 152.909 19.1951 151.819 19.2981 150.717C19.5658 147.817 18.5155 144.709 19.4393 142.067C20.5573 138.878 17.5269 135.693 20.4367 132.683C21.4988 131.588 19.4687 130.704 19.4452 129.519C19.3658 125.342 20.7486 121.22 20.5456 117.065C20.4073 114.264 21.793 111.474 20.5838 108.673C20.4014 108.249 20.3808 107.736 20.628 107.33C23.6584 102.447 20.1278 97.2065 23.1906 92.3332C20.4926 90.7033 22.2049 89.0533 23.0229 87.3682C23.5289 86.3211 22.5874 85.3424 21.5842 84.5007C17.221 80.84 17.2386 77.236 20.4367 73.1828C21.9048 71.324 24.2115 69.0277 21.5253 66.6245C20.7898 65.9665 20.5544 64.5302 21.2958 64.0476C24.4939 61.9483 21.7754 59.5151 22.967 57.339C23.7819 55.851 21.2429 56.043 18.9509 55.4318C23.1288 55.0176 24.0438 53.0202 26.5799 51.9698C28.4688 51.1832 27.4773 49.8438 26.4093 49.8187C21.8842 49.7068 24.7116 48.9169 24.9912 47.7195C25.6208 45.009 27.0595 42.3018 26.0033 39.2289C25.6737 39.0536 24.6234 39.4928 23.6848 39.3057C22.5609 39.0836 22.6551 38.3304 22.1343 38.0699C20.4426 37.2366 28.3423 37.0445 22.4227 35.9707C20.9104 35.6968 23.8349 33.9566 22.3991 32.8493C21.9549 32.5036 21.5783 32.0627 22.0402 31.5884C22.4697 31.2761 22.9787 31.3196 23.5819 31.4515C24.9264 31.7388 26.577 32.0377 27.0212 30.9555C27.5802 29.5877 25.6267 30.0153 24.3409 29.9852C23.5142 29.9635 22.7963 29.738 22.5874 29.2237C22.3609 28.6725 23.0758 28.4554 23.7672 28.2199C24.441 27.9895 25.0588 27.7022 25.7355 27.4751C26.7064 27.1461 28.3717 26.9407 27.6597 26.104C26.9241 25.2389 26.7417 23.8795 24.6381 23.786C23.5436 23.7392 22.0932 24.2219 21.44 25.0636C20.7309 25.9838 19.7453 26.8338 18.7921 27.8041C15.6852 26.7537 14.9114 25.2773 15.1409 23.1446C15.5557 19.2835 15.2262 15.3889 15.1968 11.5194C15.185 10.0448 13.4874 8.41647 13.4844 6.39404C9.9833 9.30494 13.0549 13.0125 8.36217 15.3372C7.90908 13.3665 8.12386 11.0585 6.21735 9.7976C2.5279 7.35098 6.0114 5.57237 6.71163 3.55161C6.88521 3.04559 8.00911 2.33747 7.22062 2.05022C3.92836 0.861153 6.07319 -0.99427 5.23761 -2.46058C4.59623 -3.58453 4.9787 -4.65838 6.29384 -5.65372C7.26769 -6.39356 6.89698 -7.3171 7.04409 -8.18887C7.56486 -11.2417 7.42364 -14.2044 5.79662 -17.1453C5.18465 -18.2526 6.88816 -19.1645 7.72668 -19.8275C9.64789 -21.3489 9.25953 -22.7985 7.65311 -23.8707C4.24023 -26.1536 5.45533 -28.4583 6.52039 -30.8615C7.42364 -32.909 8.30921 -34.9615 9.06534 -37.0257C9.34486 -37.7922 9.73321 -38.7324 9.2154 -39.3738C7.15295 -41.9222 9.76557 -44.7513 8.17976 -47.0393C6.28208 -49.7748 8.3357 -52.1914 7.96499 -54.7132C7.57957 -57.3469 6.43507 -59.9471 5.46416 -62.5407C4.63743 -64.7652 5.46122 -67.0048 5.41415 -69.2159C5.35236 -71.9865 4.77276 -74.8072 5.1876 -77.5177C5.79368 -81.4858 4.85809 -85.4188 5.44651 -89.3868C5.90255 -92.4397 5.3906 -95.6361 4.84631 -98.7408C4.52561 -100.571 4.61978 -102.216 5.54655 -104.003C6.37623 -105.598 8.66816 -107.527 4.75511 -109.032C4.33145 -109.194 4.49032 -109.89 4.47267 -110.339C4.29319 -114.833 4.44325 -119.348 3.77537 -123.82C3.56648 -125.201 6.77047 -125.154 5.82605 -126.522C4.86103 -127.92 5.55831 -129.583 3.69888 -130.899C2.67207 -131.627 2.38079 -132.661 2.78976 -133.508C5.32588 -138.749 2.14543 -143.969 2.778 -149.195C2.86036 -149.869 2.24252 -150.746 2.78976 -151.195C5.79368 -153.654 4.06665 -156 3.13398 -158.522C2.50732 -160.215 0.233044 -162.345 4.19316 -163.876C2.40139 -165.752 4.80807 -168.083 2.05423 -169.925C1.23337 -170.473 1.32751 -171.199 3.49882 -170.64C4.66685 -170.339 5.11993 -171.345 4.48149 -171.776C0.515485 -174.474 2.27783 -177.577 2.4161 -180.553C2.45141 -181.345 2.88685 -182.131 1.93066 -182.825C0.647886 -183.751 1.14511 -184.752 1.46873 -185.749C1.61584 -186.193 2.14543 -186.714 1.90123 -187.065C0.194792 -189.515 2.34843 -192.033 1.28338 -194.522C-0.0905931 -197.745 1.66586 -200.763 4.85809 -203.67C2.34256 -204.201 -0.905565 -204.013 -0.45836 -205.961C-0.17003 -207.219 1.69528 -208.036 3.75772 -207.962C6.51451 -207.86 7.9797 -206.791 7.17061 -204.572C9.60965 -205.988 8.91237 -207.334 9.40665 -208.45C10.9778 -212.004 11.984 -212.319 18.8244 -210.724C17.018 -210.058 15.8235 -209.305 13.5404 -209.519C11.3426 -209.724 10.7983 -208.749 10.9277 -207.787C11.0572 -206.822 12.3047 -206.27 13.814 -206.882C15.1909 -207.441 15.5734 -206.92 16.0824 -206.501C16.5237 -206.137 16.8914 -205.693 16.9885 -205.265C17.1916 -204.397 17.6711 -203.495 19.3864 -203.739C21.6107 -204.054 19.3952 -205.081 19.9042 -205.726C20.0513 -205.911 20.4073 -206.035 20.6868 -206.202C20.9251 -206.137 21.5047 -206.068 21.5194 -205.97C22.3079 -201.571 24.1762 -197.279 25.3972 -192.927C26.1474 -190.246 26.0238 -187.531 26.2327 -184.825C26.6211 -179.802 26.1356 -174.74 27.9745 -169.766C28.3334 -168.801 28.0304 -167.719 30.3223 -167.261C30.9431 -167.133 31.5904 -166.206 30.337 -165.88C27.1713 -165.06 27.8951 -163.221 27.9068 -162.054C27.9421 -158.831 28.7571 -155.619 27.8539 -152.383C27.5185 -151.182 29.5632 -150.472 29.8692 -149.51C30.9667 -149.403 31.2285 -149.818 31.7257 -149.93C37.8042 -151.267 37.9513 -154.235 37.4953 -157.137C37.0157 -160.185 37.3864 -163.205 37.813 -166.214C38.6868 -172.358 39.8137 -178.476 39.5401 -184.67C39.187 -192.593 39.0164 -200.527 39.4489 -208.447C39.7225 -213.46 39.0458 -218.472 40.0108 -223.504C40.4168 -225.641 40.4933 -227.968 40.0902 -230.161C39.7284 -232.136 41.5525 -231.978 43.7591 -231.811C43.6561 -232.923 42.2998 -233.487 41.4701 -234.217C41.017 -234.62 40.8464 -235.206 41.4937 -235.47C42.8912 -236.034 42.9971 -235.256 43.2795 -234.76C43.5737 -234.239 44.2769 -233.94 45.0183 -234.286C48.2164 -235.774 49.2021 -234.154 50.3171 -233.046C52.1736 -231.208 53.1916 -229.182 54.1154 -227.138C52.1148 -226.787 52 -227.732 51.1939 -228.108C50.4907 -228.437 49.7022 -228.527 49.102 -228.143C48.7725 -227.929 48.5371 -227.33 48.746 -227.228C52.8621 -225.227 48.3547 -223.315 48.6048 -221.374C47.7545 -221.69 47.4603 -222.627 46.051 -222.26C45.1949 -222.032 45.4803 -221.525 46.0216 -221.186C47.0631 -220.541 47.9281 -220.64 48.5136 -221.456C49.2491 -221.336 50.4142 -221.331 50.6378 -221.067C51.1145 -220.506 49.8317 -219.566 52.1854 -219.395C54.5568 -219.223 53.9242 -220.541 54.9569 -220.96C56.8958 -220.494 54.5273 -219.16 56.4603 -218.686C56.7545 -218.804 57.2782 -218.924 57.2665 -219.028C57.1076 -220.563 56.9723 -222.016 60.8412 -222.062C61.9033 -222.076 62.2299 -222.725 62.7006 -223.243C63.9275 -224.589 62.8889 -226.787 67.1609 -227.061C67.8347 -227.108 67.1226 -227.869 67.2197 -228.288C67.9111 -231.203 70.0442 -232.246 75.1753 -232.221C79.3473 -232.2 79.3473 -232.2 81.1155 -234.362C81.7186 -233.247 83.7193 -232.767 84.4578 -231.652C86.0642 -229.229 86.6408 -229.24 89.4094 -231.37C89.6418 -231.545 89.8272 -231.747 90.4127 -232.285C91.616 -229.908 95.632 -229.451 98.0711 -227.869C101.507 -225.636 102.575 -223.273 100.734 -220.768C99.7628 -219.445 101.199 -218.45 100.666 -217.266C100.41 -216.693 101.443 -215.679 103.126 -215.688C104.553 -215.696 106.506 -215.441 106.639 -216.855C106.727 -217.77 107.868 -218.069 109.098 -217.707C112.155 -216.8 115.35 -218.116 118.39 -217.395C119.799 -217.056 120.72 -217.612 121.232 -218.245C121.967 -219.152 122.476 -220.122 123.082 -221.067C122.17 -217.65 128.922 -219.198 130.173 -216.89C131.214 -218.519 132.029 -219.643 132.641 -220.802C133.041 -221.555 132.309 -222.832 131.659 -222.742C129.437 -222.435 127.519 -223.093 125.56 -223.021C123.994 -222.956 124.286 -221.476 122.929 -220.947C121.961 -222.276 121.894 -223.559 123.488 -224.778C124.318 -225.411 124.777 -226.176 126.642 -225.321C127.696 -224.838 128.64 -225.773 128.269 -226.159C125.807 -228.711 130.023 -228.985 132.103 -229.968C131.664 -228.694 131.244 -227.428 130.667 -225.693C134.324 -227.24 132.371 -228.629 132.05 -229.92C133.03 -231.438 135.419 -230.473 136.551 -230.391C142.518 -229.955 142.459 -229.93 148.496 -230.511C149.6 -230.613 150.921 -228.686 152.545 -230.404C154.166 -228.886 158.061 -230.434 159.65 -228.659C160.406 -227.812 161.713 -227.51 163.607 -228.185C164.402 -228.467 166.196 -227.938 167.467 -227.667C169.912 -227.154 172.234 -227.796 174.843 -227.958C172.554 -226.568 168.256 -225.453 166.076 -225.778C164.931 -225.954 164.587 -225.732 164.552 -225.244C164.466 -224.025 165.058 -223.046 167.662 -222.994C168.453 -222.978 169.25 -222.991 170.033 -222.931C171.866 -222.794 173.252 -221.234 175.317 -222.191C176.779 -222.866 175.549 -224.128 176.5 -225.069C177.768 -226.329 176.482 -227.958 178.321 -229.467C179.933 -228.612 182.278 -229.481 184.052 -228.724C184.173 -228.415 184.458 -228.1 184.308 -228.001C180.689 -225.65 180.978 -224.598 186.115 -224.633C188.963 -224.649 190.446 -223.682 192.687 -223.474L192.667 -223.474Z" fill="#496580"/>
</svg>
